<svg width="32" height="32" viewBox="0 0 32 32" xmlns="http://www.w3.org/2000/svg">
  <!-- Ground/dirt -->
  <rect x="0" y="18" width="32" height="14" fill="#8b4513" stroke="#654321" stroke-width="0.5"/>
  <!-- Dirt chunks/texture -->
  <circle cx="4" cy="20" r="1.5" fill="#a0522d"/>
  <circle cx="12" cy="22" r="1" fill="#a0522d"/>
  <circle cx="20" cy="21" r="1.2" fill="#a0522d"/>
  <circle cx="28" cy="23" r="1" fill="#a0522d"/>
  <circle cx="8" cy="26" r="1.3" fill="#a0522d"/>
  <circle cx="16" cy="28" r="1" fill="#a0522d"/>
  <circle cx="24" cy="27" r="1.1" fill="#a0522d"/>
  
  <!-- Hole being dug -->
  <ellipse cx="16" cy="20" rx="4" ry="2.5" fill="#4a4a4a" stroke="#333" stroke-width="0.5"/>
  <!-- Dirt pile -->
  <ellipse cx="10" cy="18" rx="3" ry="1.5" fill="#a0522d"/>
  <ellipse cx="22" cy="18" rx="2.5" ry="1.2" fill="#a0522d"/>
  
  <!-- Shovel handle -->
  <rect x="14" y="2" width="1.5" height="16" fill="#deb887" stroke="#d2b48c" stroke-width="0.5" rx="0.5"/>
  <!-- Shovel blade -->
  <path d="M12 16 L13 18 L17 18 L18 16 L15 14 Z" fill="#8b5cf6" stroke="#7c3aed" stroke-width="1"/>
  <!-- Shovel tip -->
  <path d="M13 18 L15 20 L17 18 Z" fill="#7c3aed"/>
  
  <!-- Heart buried treasure (partially visible) -->
  <path d="M16 22C16 22 14 21 14 19.5C14 19 14.4 18.5 15 18.5C15.3 18.5 15.6 18.7 16 19C16.4 18.7 16.7 18.5 17 18.5C17.6 18.5 18 19 18 19.5C18 21 16 22 16 22Z" fill="#ef4444" opacity="0.7"/>
  
  <!-- Sparkles around the treasure -->
  <circle cx="12" cy="19" r="0.8" fill="#fbbf24" opacity="0.8"/>
  <circle cx="20" cy="19.5" r="0.6" fill="#fbbf24" opacity="0.8"/>
  <circle cx="18" cy="17" r="0.5" fill="#fbbf24" opacity="0.8"/>
</svg>