<svg width="32" height="32" viewBox="0 0 32 32" xmlns="http://www.w3.org/2000/svg">
  <defs>
    <!-- Gradients for natural lighting -->
    <linearGradient id="earthGrad" x1="0%" y1="0%" x2="0%" y2="100%">
      <stop offset="0%" style="stop-color:#8B4513"/>
      <stop offset="50%" style="stop-color:#A0522D"/>
      <stop offset="100%" style="stop-color:#654321"/>
    </linearGradient>
    <linearGradient id="grassGrad" x1="0%" y1="0%" x2="0%" y2="100%">
      <stop offset="0%" style="stop-color:#32CD32"/>
      <stop offset="30%" style="stop-color:#228B22"/>
      <stop offset="100%" style="stop-color:#006400"/>
    </linearGradient>
    <linearGradient id="handleGrad" x1="0%" y1="0%" x2="100%" y2="0%">
      <stop offset="0%" style="stop-color:#F4E4BC"/>
      <stop offset="30%" style="stop-color:#DEB887"/>
      <stop offset="70%" style="stop-color:#D2B48C"/>
      <stop offset="100%" style="stop-color:#8B7355"/>
    </linearGradient>
    <linearGradient id="handleShadow" x1="0%" y1="0%" x2="100%" y2="0%">
      <stop offset="0%" style="stop-color:#8B7355"/>
      <stop offset="100%" style="stop-color:#5D4E37"/>
    </linearGradient>
    <linearGradient id="bladeGrad" x1="0%" y1="0%" x2="100%" y2="100%">
      <stop offset="0%" style="stop-color:#F8F8FF"/>
      <stop offset="20%" style="stop-color:#E6E6FA"/>
      <stop offset="50%" style="stop-color:#C0C0C0"/>
      <stop offset="80%" style="stop-color:#A9A9A9"/>
      <stop offset="100%" style="stop-color:#696969"/>
    </linearGradient>
    <linearGradient id="bladeShadow" x1="0%" y1="0%" x2="100%" y2="100%">
      <stop offset="0%" style="stop-color:#A9A9A9"/>
      <stop offset="100%" style="stop-color:#2F4F4F"/>
    </linearGradient>
    <radialGradient id="bladeHighlight" cx="30%" cy="30%">
      <stop offset="0%" style="stop-color:#FFFFFF" stop-opacity="0.8"/>
      <stop offset="50%" style="stop-color:#F8F8FF" stop-opacity="0.4"/>
      <stop offset="100%" style="stop-color:#C0C0C0" stop-opacity="0.1"/>
    </radialGradient>
  </defs>
  
  <!-- Earth layer -->
  <rect x="0" y="18" width="32" height="14" fill="url(#earthGrad)"/>
  
  <!-- Earth texture -->
  <circle cx="3" cy="22" r="0.8" fill="#654321" opacity="0.6"/>
  <circle cx="7" cy="25" r="0.6" fill="#8B4513" opacity="0.5"/>
  <circle cx="11" cy="28" r="0.7" fill="#A0522D" opacity="0.4"/>
  <circle cx="15" cy="24" r="0.5" fill="#654321" opacity="0.6"/>
  <circle cx="19" cy="27" r="0.8" fill="#8B4513" opacity="0.5"/>
  <circle cx="24" cy="23" r="0.6" fill="#A0522D" opacity="0.4"/>
  <circle cx="28" cy="26" r="0.7" fill="#654321" opacity="0.6"/>
  
  <!-- Grass layer - uneven edge, lowered -->
  <path d="M0 18 Q2 17 4 18 Q6 19 8 18 Q10 17 12 18 Q14 19.5 16 18 Q18 16.5 20 18 Q22 19 24 18 Q26 17.5 28 18 Q30 19 32 18 L32 20 L0 20 Z" fill="url(#grassGrad)"/>
  
  <!-- Grass texture/blades - lowered and removed from shovel area -->
  <path d="M2 18 L2.5 16 L3 18" stroke="#228B22" stroke-width="0.3" fill="none"/>
  <path d="M5 18 L5.5 15.5 L6 18" stroke="#32CD32" stroke-width="0.3" fill="none"/>
  <path d="M9 18 L9.5 16.5 L10 18" stroke="#228B22" stroke-width="0.3" fill="none"/>
  <!-- Removed grass blades from shovel area (13-18 range) -->
  <path d="M25 18 L25.5 16.5 L26 18" stroke="#228B22" stroke-width="0.3" fill="none"/>
  <path d="M29 18 L29.5 15 L30 18" stroke="#32CD32" stroke-width="0.3" fill="none"/>
  
  <!-- Shovel handle (wooden) - angled 30 degrees to the right, improved quality -->
  <g transform="rotate(30 16 16)">
    <!-- Handle shadow -->
    <rect x="14.2" y="2.2" width="2" height="16" fill="url(#handleShadow)" rx="1" opacity="0.3"/>
    <!-- Main handle -->
    <rect x="13.5" y="2" width="2" height="16" fill="url(#handleGrad)" stroke="#8B7355" stroke-width="0.2" rx="1"/>
    <!-- Wood grain details -->
    <line x1="14.2" y1="3" x2="14.2" y2="17" stroke="#8B7355" stroke-width="0.15" opacity="0.6"/>
    <line x1="15.3" y1="3" x2="15.3" y2="17" stroke="#F4E4BC" stroke-width="0.1" opacity="0.8"/>
    <line x1="14.8" y1="4" x2="14.8" y2="16" stroke="#D2B48C" stroke-width="0.1" opacity="0.5"/>
    <!-- Handle highlight -->
    <rect x="13.7" y="2.2" width="0.4" height="15.6" fill="#F4E4BC" opacity="0.6" rx="0.2"/>
    
    <!-- Blade shadow -->
    <path d="M11.3 16.3 L12.3 18.3 L18.3 18.3 L19.3 16.3 L15.3 14.3 Z" fill="url(#bladeShadow)" opacity="0.4"/>
    <!-- Main blade -->
    <path d="M11 16 L12 18 L18 18 L19 16 L15 14 Z" fill="url(#bladeGrad)" stroke="#696969" stroke-width="0.3"/>
    <!-- Blade highlight -->
    <path d="M11 16 L12 18 L18 18 L19 16 L15 14 Z" fill="url(#bladeHighlight)"/>
    <!-- Blade edge highlight -->
    <path d="M11.5 16.2 L12.2 17.8 L17.8 17.8 L18.5 16.2 L15 14.5 Z" fill="none" stroke="#F8F8FF" stroke-width="0.2" opacity="0.7"/>
    <!-- Blade tip in ground -->
    <path d="M12 18 L15 21 L18 18 Z" fill="url(#bladeGrad)"/>
    <!-- Tip highlight -->
    <path d="M13 18.5 L15 20 L17 18.5" fill="none" stroke="#E6E6FA" stroke-width="0.15" opacity="0.6"/>
  </g>
  
  
  <!-- Dirt clumps around hole -->
  <ellipse cx="9" cy="18.5" rx="2" ry="1" fill="#8B4513" opacity="0.8"/>
  <ellipse cx="21" cy="18.8" rx="1.8" ry="0.8" fill="#A0522D" opacity="0.7"/>
  <ellipse cx="11" cy="17.5" rx="1.5" ry="0.6" fill="#654321" opacity="0.9"/>
  <ellipse cx="19" cy="17.8" rx="1.3" ry="0.7" fill="#8B4513" opacity="0.8"/>
  
  <!-- Small dirt particles -->
  <circle cx="8" cy="17" r="0.4" fill="#A0522D" opacity="0.6"/>
  <circle cx="23" cy="17.5" r="0.3" fill="#654321" opacity="0.7"/>
  <circle cx="10.5" cy="16.8" r="0.3" fill="#8B4513" opacity="0.8"/>
  <circle cx="20.5" cy="17.2" r="0.4" fill="#A0522D" opacity="0.6"/>
  
  
  <!-- Small rocks/pebbles -->
  <ellipse cx="6" cy="19" rx="0.8" ry="0.6" fill="#696969" opacity="0.8"/>
  <ellipse cx="25" cy="21" rx="0.6" ry="0.4" fill="#778899" opacity="0.7"/>
  <ellipse cx="3" cy="24" rx="0.5" ry="0.3" fill="#696969" opacity="0.9"/>
  <ellipse cx="28" cy="25" rx="0.7" ry="0.5" fill="#778899" opacity="0.6"/>
  
  <!-- Worms in the soil -->
  <path d="M7 23 Q8 22.5 9 23 Q10 23.5 11 23" stroke="#8B4513" stroke-width="0.8" fill="none" opacity="0.7"/>
  <path d="M20 24 Q21 23.5 22 24 Q23 24.5 24 24" stroke="#A0522D" stroke-width="0.6" fill="none" opacity="0.6"/>
  
  <!-- Small flowers/wildflowers -->
  <g>
    <!-- Flower 1 -->
    <circle cx="4" cy="15" r="1" fill="#FF69B4" opacity="0.8"/>
    <circle cx="4" cy="15" r="0.4" fill="#FFD700"/>
    <path d="M4 16 L4 14" stroke="#228B22" stroke-width="0.4"/>
    
    <!-- Flower 2 -->
    <circle cx="27" cy="14" r="0.8" fill="#DA70D6" opacity="0.7"/>
    <circle cx="27" cy="14" r="0.3" fill="#FFA500"/>
    <path d="M27 15 L27 13" stroke="#228B22" stroke-width="0.3"/>
    
    <!-- Flower 3 -->
    <circle cx="30" cy="15.5" r="0.6" fill="#FF1493" opacity="0.6"/>
    <circle cx="30" cy="15.5" r="0.2" fill="#FFFF00"/>
    <path d="M30 16 L30 14.5" stroke="#228B22" stroke-width="0.3"/>
  </g>
  
  <!-- Leaves scattered on ground - moved away from shovel path -->
  <ellipse cx="6" cy="21" rx="1.2" ry="0.6" fill="#8FBC8F" opacity="0.6" transform="rotate(25 6 21)"/>
  <ellipse cx="26" cy="20.5" rx="1" ry="0.5" fill="#9ACD32" opacity="0.5" transform="rotate(-30 26 20.5)"/>
  <ellipse cx="4" cy="22" rx="0.8" ry="0.4" fill="#6B8E23" opacity="0.7" transform="rotate(45 4 22)"/>
  
  <!-- Mushrooms -->
  <ellipse cx="2" cy="17" rx="0.8" ry="0.6" fill="#D2B48C"/>
  <rect x="1.7" y="17" width="0.6" height="1" fill="#F5DEB3"/>
  <circle cx="2" cy="16.8" r="0.4" fill="#8B4513" opacity="0.3"/>
  
  <!-- Small mushroom -->
  <ellipse cx="29" cy="17.5" rx="0.5" ry="0.4" fill="#DEB887"/>
  <rect x="28.8" y="17.5" width="0.4" height="0.7" fill="#F5DEB3"/>
  
  <!-- Butterfly - moved away from shovel -->
  <g transform="translate(8 6)">
    <ellipse cx="0" cy="0" rx="1.5" ry="0.8" fill="#FF69B4" opacity="0.7"/>
    <ellipse cx="0" cy="0.8" rx="1.2" ry="0.6" fill="#FF1493" opacity="0.6"/>
    <line x1="0" y1="-0.5" x2="0" y2="1.5" stroke="#4B0082" stroke-width="0.3"/>
    <line x1="0" y1="-0.5" x2="-0.3" y2="-0.8" stroke="#4B0082" stroke-width="0.2"/>
    <line x1="0" y1="-0.5" x2="0.3" y2="-0.8" stroke="#4B0082" stroke-width="0.2"/>
  </g>
  
  <!-- Dewdrops on grass -->
  <circle cx="5" cy="15.5" r="0.3" fill="#E0FFFF" opacity="0.8"/>
  <circle cx="11" cy="15.8" r="0.2" fill="#F0FFFF" opacity="0.7"/>
  <circle cx="20" cy="15.3" r="0.25" fill="#E0FFFF" opacity="0.6"/>
  <circle cx="26" cy="15.7" r="0.2" fill="#F0FFFF" opacity="0.8"/>
  
  <!-- More varied grass heights - lowered and removed from shovel area -->
  <path d="M1 18 L1.2 14 L1.4 18" stroke="#228B22" stroke-width="0.2" fill="none"/>
  <path d="M7 18 L7.3 13.5 L7.6 18" stroke="#32CD32" stroke-width="0.2" fill="none"/>
  <!-- Removed grass from shovel area (around 15) -->
  <path d="M23 18 L23.3 13 L23.6 18" stroke="#32CD32" stroke-width="0.2" fill="none"/>
  <path d="M31 18 L31.2 14 L31.4 18" stroke="#228B22" stroke-width="0.2" fill="none"/>
  
  <!-- Shadow under grass -->
  <ellipse cx="15" cy="20" rx="6" ry="0.8" fill="#000000" opacity="0.1"/>
</svg>