<svg width="32" height="32" viewBox="0 0 32 32" xmlns="http://www.w3.org/2000/svg">
  <defs>
    <!-- Gradients for natural lighting -->
    <linearGradient id="earthGrad" x1="0%" y1="0%" x2="0%" y2="100%">
      <stop offset="0%" style="stop-color:#8B4513"/>
      <stop offset="50%" style="stop-color:#A0522D"/>
      <stop offset="100%" style="stop-color:#654321"/>
    </linearGradient>
    <linearGradient id="grassGrad" x1="0%" y1="0%" x2="0%" y2="100%">
      <stop offset="0%" style="stop-color:#32CD32"/>
      <stop offset="30%" style="stop-color:#228B22"/>
      <stop offset="100%" style="stop-color:#006400"/>
    </linearGradient>
    <linearGradient id="handleGrad" x1="0%" y1="0%" x2="100%" y2="0%">
      <stop offset="0%" style="stop-color:#DEB887"/>
      <stop offset="50%" style="stop-color:#D2B48C"/>
      <stop offset="100%" style="stop-color:#BC9A6A"/>
    </linearGradient>
    <linearGradient id="bladeGrad" x1="0%" y1="0%" x2="100%" y2="100%">
      <stop offset="0%" style="stop-color:#E6E6FA"/>
      <stop offset="30%" style="stop-color:#C0C0C0"/>
      <stop offset="70%" style="stop-color:#A9A9A9"/>
      <stop offset="100%" style="stop-color:#808080"/>
    </linearGradient>
  </defs>
  
  <!-- Earth layer -->
  <rect x="0" y="18" width="32" height="14" fill="url(#earthGrad)"/>
  
  <!-- Earth texture -->
  <circle cx="3" cy="22" r="0.8" fill="#654321" opacity="0.6"/>
  <circle cx="7" cy="25" r="0.6" fill="#8B4513" opacity="0.5"/>
  <circle cx="11" cy="28" r="0.7" fill="#A0522D" opacity="0.4"/>
  <circle cx="15" cy="24" r="0.5" fill="#654321" opacity="0.6"/>
  <circle cx="19" cy="27" r="0.8" fill="#8B4513" opacity="0.5"/>
  <circle cx="24" cy="23" r="0.6" fill="#A0522D" opacity="0.4"/>
  <circle cx="28" cy="26" r="0.7" fill="#654321" opacity="0.6"/>
  
  <!-- Grass layer - uneven edge -->
  <path d="M0 16 Q2 15 4 16 Q6 17 8 16 Q10 15 12 16 Q14 17.5 16 16 Q18 14.5 20 16 Q22 17 24 16 Q26 15.5 28 16 Q30 17 32 16 L32 18 L0 18 Z" fill="url(#grassGrad)"/>
  
  <!-- Grass texture/blades -->
  <path d="M2 16 L2.5 14 L3 16" stroke="#228B22" stroke-width="0.3" fill="none"/>
  <path d="M5 16 L5.5 13.5 L6 16" stroke="#32CD32" stroke-width="0.3" fill="none"/>
  <path d="M9 16 L9.5 14.5 L10 16" stroke="#228B22" stroke-width="0.3" fill="none"/>
  <path d="M13 16 L13.5 13 L14 16" stroke="#32CD32" stroke-width="0.3" fill="none"/>
  <path d="M17 16 L17.5 14 L18 16" stroke="#228B22" stroke-width="0.3" fill="none"/>
  <path d="M21 16 L21.5 13.5 L22 16" stroke="#32CD32" stroke-width="0.3" fill="none"/>
  <path d="M25 16 L25.5 14.5 L26 16" stroke="#228B22" stroke-width="0.3" fill="none"/>
  <path d="M29 16 L29.5 13 L30 16" stroke="#32CD32" stroke-width="0.3" fill="none"/>
  
  <!-- Shovel handle (wooden) - angled 30 degrees to the right -->
  <g transform="rotate(30 16 16)">
    <rect x="13.5" y="2" width="2" height="16" fill="url(#handleGrad)" stroke="#BC9A6A" stroke-width="0.3" rx="1"/>
    <!-- Wood grain details -->
    <line x1="14" y1="4" x2="14" y2="16" stroke="#BC9A6A" stroke-width="0.2" opacity="0.7"/>
    <line x1="15" y1="3" x2="15" y2="17" stroke="#D2B48C" stroke-width="0.2" opacity="0.5"/>
    
    <!-- Shovel blade (silver metal) -->
    <path d="M11 16 L12 18 L18 18 L19 16 L15 14 Z" fill="url(#bladeGrad)" stroke="#A9A9A9" stroke-width="0.5"/>
    <!-- Blade tip in ground -->
    <path d="M12 18 L15 21 L18 18 Z" fill="#C0C0C0"/>
  </g>
  
  
  <!-- Dirt clumps around hole -->
  <ellipse cx="9" cy="18.5" rx="2" ry="1" fill="#8B4513" opacity="0.8"/>
  <ellipse cx="21" cy="18.8" rx="1.8" ry="0.8" fill="#A0522D" opacity="0.7"/>
  <ellipse cx="11" cy="17.5" rx="1.5" ry="0.6" fill="#654321" opacity="0.9"/>
  <ellipse cx="19" cy="17.8" rx="1.3" ry="0.7" fill="#8B4513" opacity="0.8"/>
  
  <!-- Small dirt particles -->
  <circle cx="8" cy="17" r="0.4" fill="#A0522D" opacity="0.6"/>
  <circle cx="23" cy="17.5" r="0.3" fill="#654321" opacity="0.7"/>
  <circle cx="10.5" cy="16.8" r="0.3" fill="#8B4513" opacity="0.8"/>
  <circle cx="20.5" cy="17.2" r="0.4" fill="#A0522D" opacity="0.6"/>
  
  
  <!-- Shadow under grass -->
  <ellipse cx="15" cy="18" rx="6" ry="0.8" fill="#000000" opacity="0.1"/>
</svg>