<svg width="1200" height="630" viewBox="0 0 1200 630" xmlns="http://www.w3.org/2000/svg">
  <defs>
    <!-- Background gradient matching home page -->
    <radialGradient id="bgGradient" cx="30%" cy="35%" r="70%">
      <stop offset="15%" style="stop-color:rgb(194 65 12)"/>
      <stop offset="40%" style="stop-color:rgb(190 24 93)"/>
      <stop offset="70%" style="stop-color:rgb(88 28 135)"/>
    </radialGradient>
    
    <!-- Garden digging icon gradients -->
    <linearGradient id="earthGrad" x1="0%" y1="0%" x2="0%" y2="100%">
      <stop offset="0%" style="stop-color:#8B4513"/>
      <stop offset="50%" style="stop-color:#A0522D"/>
      <stop offset="100%" style="stop-color:#654321"/>
    </linearGradient>
    <linearGradient id="grassGrad" x1="0%" y1="0%" x2="0%" y2="100%">
      <stop offset="0%" style="stop-color:#32CD32"/>
      <stop offset="30%" style="stop-color:#228B22"/>
      <stop offset="100%" style="stop-color:#006400"/>
    </linearGradient>
    <linearGradient id="handleGrad" x1="0%" y1="0%" x2="100%" y2="0%">
      <stop offset="0%" style="stop-color:#F4E4BC"/>
      <stop offset="30%" style="stop-color:#DEB887"/>
      <stop offset="70%" style="stop-color:#D2B48C"/>
      <stop offset="100%" style="stop-color:#8B7355"/>
    </linearGradient>
    <linearGradient id="handleShadow" x1="0%" y1="0%" x2="100%" y2="0%">
      <stop offset="0%" style="stop-color:#8B7355"/>
      <stop offset="100%" style="stop-color:#5D4E37"/>
    </linearGradient>
    <linearGradient id="bladeGrad" x1="0%" y1="0%" x2="100%" y2="100%">
      <stop offset="0%" style="stop-color:#F8F8FF"/>
      <stop offset="20%" style="stop-color:#E6E6FA"/>
      <stop offset="50%" style="stop-color:#C0C0C0"/>
      <stop offset="80%" style="stop-color:#A9A9A9"/>
      <stop offset="100%" style="stop-color:#696969"/>
    </linearGradient>
    <linearGradient id="bladeShadow" x1="0%" y1="0%" x2="100%" y2="100%">
      <stop offset="0%" style="stop-color:#A9A9A9"/>
      <stop offset="100%" style="stop-color:#2F4F4F"/>
    </linearGradient>
    <radialGradient id="bladeHighlight" cx="30%" cy="30%">
      <stop offset="0%" style="stop-color:#FFFFFF" stop-opacity="0.8"/>
      <stop offset="50%" style="stop-color:#F8F8FF" stop-opacity="0.4"/>
      <stop offset="100%" style="stop-color:#C0C0C0" stop-opacity="0.1"/>
    </radialGradient>
  </defs>
  
  <!-- Background -->
  <rect width="1200" height="630" fill="url(#bgGradient)"/>
  
  <!-- Main content container -->
  <g>
    <!-- Title -->
    <text x="600" y="120" text-anchor="middle" fill="white" font-family="serif" font-size="84" font-weight="bold" 
          style="text-shadow: 0 0 20px rgba(255,255,255,0.5), 0 0 40px rgba(255,255,255,0.3);">
      COMING SECRETS
    </text>
    
    <!-- Subtitle -->
    <text x="600" y="180" text-anchor="middle" fill="rgba(255,255,255,0.9)" font-family="sans-serif" font-size="24" font-weight="normal">
      Send time-locked messages that unlock on a specific date
    </text>
    
    <!-- Garden digging icon - scaled up and centered -->
    <g transform="translate(480, 250) scale(8)">
      <!-- Earth layer -->
      <rect x="0" y="18" width="32" height="14" fill="url(#earthGrad)"/>
      
      <!-- Earth texture -->
      <circle cx="3" cy="22" r="0.8" fill="#654321" opacity="0.6"/>
      <circle cx="7" cy="25" r="0.6" fill="#8B4513" opacity="0.5"/>
      <circle cx="11" cy="28" r="0.7" fill="#A0522D" opacity="0.4"/>
      <circle cx="15" cy="24" r="0.5" fill="#654321" opacity="0.6"/>
      <circle cx="19" cy="27" r="0.8" fill="#8B4513" opacity="0.5"/>
      <circle cx="24" cy="23" r="0.6" fill="#A0522D" opacity="0.4"/>
      <circle cx="28" cy="26" r="0.7" fill="#654321" opacity="0.6"/>
      
      <!-- Grass layer -->
      <path d="M0 18 Q2 17 4 18 Q6 19 8 18 Q10 17 12 18 Q14 19.5 16 18 Q18 16.5 20 18 Q22 19 24 18 Q26 17.5 28 18 Q30 19 32 18 L32 20 L0 20 Z" fill="url(#grassGrad)"/>
      
      <!-- Grass blades -->
      <path d="M2 18 L2.5 16 L3 18" stroke="#228B22" stroke-width="0.3" fill="none"/>
      <path d="M5 18 L5.5 15.5 L6 18" stroke="#32CD32" stroke-width="0.3" fill="none"/>
      <path d="M9 18 L9.5 16.5 L10 18" stroke="#228B22" stroke-width="0.3" fill="none"/>
      <path d="M25 18 L25.5 16.5 L26 18" stroke="#228B22" stroke-width="0.3" fill="none"/>
      <path d="M29 18 L29.5 15 L30 18" stroke="#32CD32" stroke-width="0.3" fill="none"/>
      
      <!-- Shovel handle -->
      <g transform="rotate(30 16 16)">
        <rect x="14.2" y="2.2" width="2" height="16" fill="url(#handleShadow)" rx="1" opacity="0.3"/>
        <rect x="13.5" y="2" width="2" height="16" fill="url(#handleGrad)" stroke="#8B7355" stroke-width="0.2" rx="1"/>
        <line x1="14.2" y1="3" x2="14.2" y2="17" stroke="#8B7355" stroke-width="0.15" opacity="0.6"/>
        <line x1="15.3" y1="3" x2="15.3" y2="17" stroke="#F4E4BC" stroke-width="0.1" opacity="0.8"/>
        <line x1="14.8" y1="4" x2="14.8" y2="16" stroke="#D2B48C" stroke-width="0.1" opacity="0.5"/>
        <rect x="13.7" y="2.2" width="0.4" height="15.6" fill="#F4E4BC" opacity="0.6" rx="0.2"/>
        
        <!-- Blade -->
        <path d="M11.3 16.3 L12.3 18.3 L18.3 18.3 L19.3 16.3 L15.3 14.3 Z" fill="url(#bladeShadow)" opacity="0.4"/>
        <path d="M11 16 L12 18 L18 18 L19 16 L15 14 Z" fill="url(#bladeGrad)" stroke="#696969" stroke-width="0.3"/>
        <path d="M11 16 L12 18 L18 18 L19 16 L15 14 Z" fill="url(#bladeHighlight)"/>
        <path d="M11.5 16.2 L12.2 17.8 L17.8 17.8 L18.5 16.2 L15 14.5 Z" fill="none" stroke="#F8F8FF" stroke-width="0.2" opacity="0.7"/>
        <path d="M12 18 L15 21 L18 18 Z" fill="url(#bladeGrad)"/>
        <path d="M13 18.5 L15 20 L17 18.5" fill="none" stroke="#E6E6FA" stroke-width="0.15" opacity="0.6"/>
      </g>
      
      <!-- Dirt clumps -->
      <ellipse cx="9" cy="18.5" rx="2" ry="1" fill="#8B4513" opacity="0.8"/>
      <ellipse cx="21" cy="18.8" rx="1.8" ry="0.8" fill="#A0522D" opacity="0.7"/>
      <ellipse cx="11" cy="17.5" rx="1.5" ry="0.6" fill="#654321" opacity="0.9"/>
      <ellipse cx="19" cy="17.8" rx="1.3" ry="0.7" fill="#8B4513" opacity="0.8"/>
      
      <!-- Flowers -->
      <circle cx="4" cy="15" r="1" fill="#FF69B4" opacity="0.8"/>
      <circle cx="4" cy="15" r="0.4" fill="#FFD700"/>
      <path d="M4 16 L4 14" stroke="#228B22" stroke-width="0.4"/>
      
      <circle cx="27" cy="14" r="0.8" fill="#DA70D6" opacity="0.7"/>
      <circle cx="27" cy="14" r="0.3" fill="#FFA500"/>
      <path d="M27 15 L27 13" stroke="#228B22" stroke-width="0.3"/>
      
      <!-- Butterfly -->
      <g transform="translate(8 6)">
        <ellipse cx="0" cy="0" rx="1.5" ry="0.8" fill="#FF69B4" opacity="0.7"/>
        <ellipse cx="0" cy="0.8" rx="1.2" ry="0.6" fill="#FF1493" opacity="0.6"/>
        <line x1="0" y1="-0.5" x2="0" y2="1.5" stroke="#4B0082" stroke-width="0.3"/>
        <line x1="0" y1="-0.5" x2="-0.3" y2="-0.8" stroke="#4B0082" stroke-width="0.2"/>
        <line x1="0" y1="-0.5" x2="0.3" y2="-0.8" stroke="#4B0082" stroke-width="0.2"/>
      </g>
    </g>
    
    <!-- Bottom tagline -->
    <text x="600" y="580" text-anchor="middle" fill="rgba(255,255,255,0.8)" font-family="sans-serif" font-size="20" font-weight="normal">
      Perfect for birthday surprises • Anniversary messages • Future reminders
    </text>
  </g>
</svg>